<svg width="18" height="19" viewBox="0 0 18 19" fill="none" xmlns="http://www.w3.org/2000/svg">
<path d="M3.54543 5.16271C3.33021 5.10593 3.15133 4.95649 3.05716 4.7548C2.963 4.55312 2.96329 4.32002 3.05795 4.11857L4.7187 0.584182C4.84246 0.320796 5.10742 0.152779 5.39843 0.153138C5.68944 0.153498 5.95398 0.322171 6.07709 0.585862L6.80971 2.1551C6.83591 2.1448 6.86295 2.13588 6.89078 2.12842C11.2381 0.96355 15.7067 3.54346 16.8715 7.89081C18.0364 12.2382 15.4565 16.7067 11.1091 17.8716C6.7618 19.0364 2.29326 16.4565 1.12839 12.1092C0.757969 10.7267 0.766303 9.32985 1.09074 8.03111C1.19112 7.62925 1.59828 7.38485 2.00015 7.48524C2.40201 7.58563 2.6464 7.99279 2.54602 8.39465C2.28172 9.45264 2.27444 10.5907 2.57728 11.7209C3.52774 15.2681 7.17377 17.3731 10.7209 16.4227C14.2681 15.4722 16.3731 11.8262 15.4226 8.27904C14.4877 4.78989 10.9447 2.69607 7.45307 3.53313L8.19226 5.11643C8.31537 5.38012 8.27483 5.69122 8.08825 5.91455C7.90167 6.13789 7.60274 6.23313 7.32136 6.15889L3.54543 5.16271Z" fill="#464F54"/>
</svg>
